<?xml version="1.0" standalone="no"?>
<!DOCTYPE svg PUBLIC "-//W3C//DTD SVG 20010904//EN"
 "http://www.w3.org/TR/2001/REC-SVG-20010904/DTD/svg10.dtd">
<svg version="1.0" xmlns="http://www.w3.org/2000/svg"
 width="377.600000pt" height="377.600000pt" viewBox="0 0 377.600000 377.600000"
 preserveAspectRatio="xMidYMid meet">
<metadata>
Created by potrace 1.13, written by Peter Selinger 2001-2015
</metadata>
<g transform="translate(0.000000,377.600000) scale(0.080000,-0.080000)"
fill="#000000" stroke="none">
<path d="M1429 4510 c-200 -13 -365 -48 -457 -94 -168 -85 -274 -369 -242
-646 10 -90 44 -247 56 -259 3 -3 11 -1 19 4 380 270 909 431 1660 506 160 17
662 17 790 1 150 -19 259 -40 347 -68 l79 -25 -6 -32 c-12 -63 -65 -154 -115
-201 -132 -123 -308 -156 -850 -156 -296 -1 -434 -8 -563 -30 l-62 -11 0 -301
0 -301 395 9 c602 14 633 13 667 -12 24 -18 28 -29 31 -81 5 -110 -50 -213
-148 -275 -114 -72 -274 -98 -613 -98 -123 0 -252 -3 -286 -6 l-61 -7 0 -618
0 -618 38 -31 c192 -159 386 -103 684 197 241 242 441 523 668 938 394 718
615 1442 506 1653 -99 192 -734 403 -1541 511 -343 46 -758 68 -996 51z"/>
<path d="M1525 3351 c-85 -25 -176 -65 -280 -123 -101 -57 -254 -158 -272
-180 -21 -24 178 -436 380 -788 61 -106 208 -348 233 -385 12 -17 14 91 14
738 0 416 -3 757 -7 756 -5 0 -35 -8 -68 -18z"/>
<path d="M1300 768 l0 -101 -22 20 c-55 50 -123 58 -179 20 -111 -75 -105
-263 11 -324 64 -34 127 -28 176 18 21 19 21 19 32 -6 12 -25 51 -41 77 -31
17 6 22 86 5 86 -6 0 -10 77 -10 210 l0 210 -45 0 -45 0 0 -102z m-29 -147
c24 -25 29 -38 29 -79 0 -44 -4 -54 -31 -76 -51 -43 -116 -29 -144 31 -50 106
66 204 146 124z"/>
<path d="M4014 856 c-3 -8 -4 -29 -2 -48 3 -31 5 -33 46 -36 l42 -3 0 50 0 51
-40 0 c-26 0 -43 -5 -46 -14z"/>
<path d="M4184 856 c-3 -8 -4 -111 -2 -229 3 -230 5 -239 58 -259 32 -12 110
-1 117 18 8 21 -6 66 -18 58 -6 -3 -21 -3 -34 0 l-25 6 -2 208 -3 207 -43 3
c-30 2 -44 -1 -48 -12z"/>
<path d="M10 810 l0 -40 75 0 75 0 0 -200 0 -200 50 0 50 0 0 200 0 200 75 0
75 0 0 40 0 40 -200 0 -200 0 0 -40z"/>
<path d="M2660 610 l0 -240 50 0 50 0 0 100 0 100 95 0 95 0 0 40 0 40 -95 0
-95 0 0 60 0 60 115 0 115 0 0 40 0 40 -165 0 -165 0 0 -240z"/>
<path d="M390 550 l0 -180 45 0 45 0 0 104 c0 57 3 112 6 121 8 20 56 45 89
45 23 0 25 3 25 46 l0 47 -32 -7 c-18 -3 -47 -21 -65 -38 l-33 -32 0 37 c0 36
-1 37 -40 37 l-40 0 0 -180z"/>
<path d="M720 723 c-8 -3 -30 -12 -47 -20 -32 -15 -32 -16 -17 -44 14 -28 16
-29 43 -14 54 27 103 29 134 5 16 -13 27 -31 27 -46 0 -23 -2 -24 -58 -18
-144 15 -234 -102 -146 -190 47 -46 122 -46 189 -1 34 23 35 24 35 4 0 -25 40
-44 74 -35 22 5 26 12 26 40 0 18 -7 39 -15 46 -11 9 -15 34 -15 99 0 101 -19
143 -75 167 -33 14 -125 18 -155 7z m109 -189 c68 -14 20 -104 -55 -104 -68 0
-88 65 -29 98 23 13 41 14 84 6z"/>
<path d="M1565 716 c-37 -17 -80 -62 -94 -99 -14 -36 -14 -108 0 -144 33 -87
144 -134 240 -102 32 11 99 65 99 80 0 4 -16 10 -35 13 -28 6 -41 2 -62 -13
-37 -30 -97 -28 -128 4 -14 13 -25 33 -25 45 0 19 6 20 135 20 l135 0 0 34 c0
69 -44 135 -107 162 -41 18 -119 17 -158 0z m142 -78 c47 -53 41 -58 -62 -58
-86 0 -94 2 -88 18 14 40 46 62 88 62 30 0 47 -6 62 -22z"/>
<path d="M1890 550 l0 -180 45 0 45 0 0 115 0 115 33 20 c17 11 44 20 60 20
25 0 27 3 27 45 0 41 -2 45 -25 45 -15 0 -41 -15 -65 -36 l-40 -36 0 36 c0 35
-1 36 -40 36 l-40 0 0 -180z"/>
<path d="M2204 716 c-42 -19 -64 -52 -64 -98 0 -48 22 -71 91 -93 100 -31 109
-36 109 -60 0 -41 -75 -48 -141 -14 -23 11 -42 19 -44 17 -1 -2 -8 -13 -14
-26 -16 -31 -3 -46 56 -66 87 -30 183 -13 218 38 8 11 15 38 15 59 0 52 -31
78 -124 105 -83 24 -101 45 -66 74 28 23 45 22 99 -3 46 -20 46 -20 71 23 8
13 2 20 -33 37 -50 24 -126 27 -173 7z"/>
<path d="M3060 723 c-8 -3 -30 -12 -47 -20 -32 -15 -32 -16 -17 -44 14 -28 16
-29 43 -14 54 27 103 29 134 5 16 -13 27 -31 27 -46 0 -23 -2 -24 -58 -18
-144 15 -234 -102 -146 -190 47 -46 122 -46 189 -1 34 23 35 24 35 4 0 -25 40
-44 74 -35 22 5 26 12 26 40 0 18 -7 39 -15 46 -11 9 -15 34 -15 99 0 101 -19
143 -75 167 -33 14 -125 18 -155 7z m109 -189 c68 -14 20 -104 -55 -104 -68 0
-88 65 -29 98 23 13 41 14 84 6z"/>
<path d="M3380 550 l0 -180 45 0 45 0 0 111 c0 109 0 111 30 140 21 22 37 29
57 27 42 -5 53 -38 53 -165 l0 -113 45 0 45 0 0 111 c0 109 0 111 29 140 35
35 74 38 95 7 12 -17 16 -50 16 -140 l0 -118 45 0 45 0 0 143 c0 124 -3 146
-20 174 -34 57 -128 58 -184 4 l-33 -32 -11 26 c-13 29 -48 45 -98 45 -39 0
-68 -12 -101 -43 l-23 -20 0 31 c0 31 -2 32 -40 32 l-40 0 0 -180z"/>
<path d="M4017 723 c-4 -3 -7 -84 -7 -180 l0 -173 45 0 45 0 0 180 0 180 -38
0 c-21 0 -42 -3 -45 -7z"/>
<path d="M4360 723 c0 -5 30 -82 66 -173 36 -91 66 -175 66 -187 0 -13 -7 -34
-17 -49 -13 -21 -23 -25 -46 -22 -29 5 -30 4 -27 -36 3 -35 7 -42 28 -44 40
-6 99 17 118 45 21 32 171 455 165 466 -2 4 -20 7 -39 7 -40 0 -38 4 -90 -165
l-37 -120 -24 70 c-12 39 -35 103 -49 143 l-26 72 -44 0 c-24 0 -44 -3 -44 -7z"/>
</g>
</svg>
